<svg id="visual" viewBox="0 0 960 540" width="960" height="540" xmlns="http://www.w3.org/2000/svg" xmlns:xlink="http://www.w3.org/1999/xlink" version="1.1"><rect x="0" y="0" width="960" height="540" fill="#f5f3ff"></rect><path d="M0 460L22.8 455.8C45.7 451.7 91.3 443.3 137 438.8C182.7 434.3 228.3 433.7 274 439.2C319.7 444.7 365.3 456.3 411.2 462.3C457 468.3 503 468.7 548.8 467C594.7 465.3 640.3 461.7 686 456.7C731.7 451.7 777.3 445.3 823 443.8C868.7 442.3 914.3 445.7 937.2 447.3L960 449L960 541L937.2 541C914.3 541 868.7 541 823 541C777.3 541 731.7 541 686 541C640.3 541 594.7 541 548.8 541C503 541 457 541 411.2 541C365.3 541 319.7 541 274 541C228.3 541 182.7 541 137 541C91.3 541 45.7 541 22.8 541L0 541Z" fill="#8b5cf6" stroke-linecap="round" stroke-linejoin="miter"></path></svg>