<!DOCTYPE svg PUBLIC "-//W3C//DTD SVG 1.1//EN" "http://www.w3.org/Graphics/SVG/1.1/DTD/svg11.dtd">

<!-- Uploaded to: SVG Repo, www.svgrepo.com, Transformed by: SVG Repo Mixer Tools -->
<svg fill="#A78BFA" width="41px" height="100px" viewBox="0 0 19.00 19.00" xmlns="http://www.w3.org/2000/svg" class="cf-icon-svg" stroke="#A78BFA" stroke-width="0.437">

<g id="SVGRepo_bgCarrier" stroke-width="0"/>

<g id="SVGRepo_tracerCarrier" stroke-linecap="round" stroke-linejoin="round" stroke="#CCCCCC" stroke-width="0.11399999999999999"/>

<g id="SVGRepo_iconCarrier">

<path d="M16.417 9.583A7.917 7.917 0 1 1 8.5 1.666a7.917 7.917 0 0 1 7.917 7.917zm-2.967-3.47a.792.792 0 0 0-.792-.792H4.342a.792.792 0 1 0 0 1.583h8.316a.792.792 0 0 0 .792-.791zm0 3.487a.792.792 0 0 0-.792-.791H4.342a.792.792 0 1 0 0 1.583h8.316a.792.792 0 0 0 .792-.792zm0 3.487a.792.792 0 0 0-.792-.791H4.342a.792.792 0 1 0 0 1.583h8.316a.792.792 0 0 0 .792-.792z"/>

</g>

</svg>