<svg xmlns="http://www.w3.org/2000/svg" xmlns:xlink="http://www.w3.org/1999/xlink" width="500" zoomAndPan="magnify" viewBox="0 0 375 374.999991" height="500" preserveAspectRatio="xMidYMid meet" version="1.0"><defs><g/></defs><g fill="#000000" fill-opacity="1"><g transform="translate(94.987858, 223.874985)"><g><path d="M 51.546875 -11 L 51.0625 -11 C 50.53125 -7.5 48.742188 -4.59375 45.703125 -2.28125 C 42.660156 0.03125 38.53125 1.1875 33.3125 1.1875 C 29.34375 1.1875 25.640625 0.425781 22.203125 -1.09375 C 18.765625 -2.613281 15.753906 -4.859375 13.171875 -7.828125 C 10.597656 -10.804688 8.582031 -14.507812 7.125 -18.9375 C 5.675781 -23.363281 4.953125 -28.484375 4.953125 -34.296875 C 4.953125 -40.117188 5.710938 -45.273438 7.234375 -49.765625 C 8.753906 -54.265625 10.882812 -58.03125 13.625 -61.0625 C 16.375 -64.101562 19.664062 -66.414062 23.5 -68 C 27.332031 -69.59375 31.59375 -70.390625 36.28125 -70.390625 C 42.5 -70.390625 47.851562 -69.050781 52.34375 -66.375 C 56.84375 -63.695312 60.378906 -59.679688 62.953125 -54.328125 L 50.65625 -47.296875 C 49.601562 -50.003906 47.953125 -52.296875 45.703125 -54.171875 C 43.453125 -56.054688 40.3125 -57 36.28125 -57 C 31.59375 -57 27.859375 -55.644531 25.078125 -52.9375 C 22.304688 -50.226562 20.921875 -45.96875 20.921875 -40.15625 L 20.921875 -29.046875 C 20.921875 -23.296875 22.304688 -19.046875 25.078125 -16.296875 C 27.859375 -13.554688 31.59375 -12.1875 36.28125 -12.1875 C 38.132812 -12.1875 39.882812 -12.398438 41.53125 -12.828125 C 43.1875 -13.265625 44.640625 -13.925781 45.890625 -14.8125 C 47.148438 -15.707031 48.128906 -16.78125 48.828125 -18.03125 C 49.523438 -19.289062 49.875 -20.78125 49.875 -22.5 L 49.875 -25.96875 L 36.984375 -25.96875 L 36.984375 -38.5625 L 64.25 -38.5625 L 64.25 0 L 51.546875 0 Z M 51.546875 -11 "/></g></g></g><g fill="#000000" fill-opacity="1"><g transform="translate(166.261531, 223.874985)"><g><path d="M 50.265625 0 L 45.3125 -16.453125 L 22.203125 -16.453125 L 17.25 0 L 1.984375 0 L 24.78125 -69.203125 L 43.421875 -69.203125 L 65.921875 0 Z M 33.90625 -55.515625 L 33.40625 -55.515625 L 25.78125 -29.25 L 41.640625 -29.25 Z M 33.90625 -55.515625 "/></g></g></g><g fill="#a78bfa" fill-opacity="1"><g transform="translate(234.171447, 223.874985)"><g><path d="M 15.359375 1.09375 C 12.390625 1.09375 10.191406 0.347656 8.765625 -1.140625 C 7.347656 -2.628906 6.640625 -4.53125 6.640625 -6.84375 L 6.640625 -8.828125 C 6.640625 -11.140625 7.347656 -13.035156 8.765625 -14.515625 C 10.191406 -16.003906 12.390625 -16.75 15.359375 -16.75 C 18.335938 -16.75 20.535156 -16.003906 21.953125 -14.515625 C 23.378906 -13.035156 24.09375 -11.140625 24.09375 -8.828125 L 24.09375 -6.84375 C 24.09375 -4.53125 23.378906 -2.628906 21.953125 -1.140625 C 20.535156 0.347656 18.335938 1.09375 15.359375 1.09375 Z M 15.359375 1.09375 "/></g></g></g></svg>